<?xml version="1.0" encoding="UTF-8" standalone="no"?>
<!-- Uploaded to: SVG Repo, www.svgrepo.com, Generator: SVG Repo Mixer Tools -->

<svg
   fill="#000000"
   height="24"
   width="24"
   version="1.1"
   id="Layer_1"
   viewBox="0 0 24 24"
   xml:space="preserve"
   xmlns="http://www.w3.org/2000/svg"
   xmlns:svg="http://www.w3.org/2000/svg"><defs
   id="defs4" />

<g
   id="g4"
   transform="matrix(3.8529452,0,0,3.1443253,-12.175714,-7.94784)"><path
     d="M 8.2061124,8.3513853 C 8.4654391,7.6945886 8.4143886,7.0506713 8.369385,6.4825654 8.3435471,6.1565998 8.3191606,5.8487362 8.3562976,5.5754827 8.4241962,5.0761774 8.2455937,4.7591749 8.0837814,4.5811679 8.0365021,4.5291584 7.9879229,4.4860202 7.9415453,4.4503254 8.0217263,4.2374247 8.2452793,3.8644606 8.8390928,3.7807396 L 8.7192462,3.3199793 c -0.1916416,0.027002 -0.35433,0.07765 -0.492458,0.1419413 C 7.957307,2.9875329 7.5133457,2.7174517 6.9362709,2.6787873 6.5020711,2.6496821 6.1432886,2.7666441 6.1282463,2.771639 l -0.3120176,0.103417 0.246464,0.2645011 c 0.2580095,0.2768753 0.5132911,0.4885597 0.7642818,0.6341466 0.2639263,0.1530904 0.5230795,0.2330653 0.7755006,0.2388229 0.00318,9.29e-5 0.00638,1.317e-4 0.00956,2.107e-4 -0.040334,0.067262 -0.07192,0.1321089 -0.096087,0.1914392 C 7.4638512,4.1828466 7.4051385,4.1635554 7.3405699,4.1500028 7.1131592,4.1022545 6.7681571,4.1155405 6.416029,4.4499623 6.2233728,4.6330069 5.9699034,4.779733 5.7016124,4.9350891 5.2339999,5.205836 4.7039856,5.5127234 4.3339155,6.1052836 4.0704842,6.5271262 3.6688906,7.3650358 3.9390936,8.2375298 4.1050483,8.7733734 4.4927147,9.221138 5.0913396,9.5683698 5.6899313,9.9155827 6.2514085,10.018369 6.7601152,9.8738781 7.5883856,9.6385862 8.0217348,8.8190798 8.2063464,8.3515179 Z M 6.700457,3.145672 C 6.784086,3.138742 6.8765689,3.136532 6.9727119,3.143682 7.3112592,3.1689029 7.5650558,3.2949096 7.742571,3.5272152 7.5512464,3.5751722 7.1979155,3.5647516 6.700457,3.145672 Z M 6.5820714,9.4252388 C 6.1996269,9.5338756 5.7648564,9.4492649 5.2898356,9.173729 4.8148064,8.898189 4.5106982,8.5542295 4.385922,8.1513632 4.1697116,7.4532629 4.5153974,6.7438614 4.7406916,6.3831152 5.0594178,5.8728344 5.5236838,5.6039963 5.9726628,5.3440083 6.2616427,5.1766709 6.5346225,5.0186181 6.7607472,4.803875 6.9328152,4.6403742 7.1071269,4.5721763 7.2787062,4.6010774 c 0.072685,0.012241 0.1319409,0.040135 0.1696007,0.06198 0.023444,0.013599 0.03851,0.02485 0.043226,0.028496 l 0.035141,0.032602 0.053671,0.018423 c 8.545e-4,2.814e-4 0.09052,0.036078 0.1724197,0.1261789 C 7.8790821,5.0077401 7.9257055,5.2065711 7.8913081,5.4596509 7.8477144,5.7802879 7.874,6.1119129 7.9018174,6.4629924 7.9450535,7.0085058 7.9897438,7.5725636 7.7664307,8.1381888 7.6085168,8.5380189 7.244718,9.2369301 6.5820311,9.4252107 Z"
     id="path1"
     style="stroke-width:0.00345956;stroke-dasharray:none" /><path
     d="M 7.2764287,7.1129235 C 7.2533432,6.7815574 7.1135932,6.4817611 6.8930284,6.2904008 6.6724562,6.0990341 6.3877026,6.0305344 6.1117825,6.1024855 5.8544365,6.16957 5.6227583,6.3500328 5.4594111,6.6105894 5.2960717,6.8711336 5.2179637,7.1848138 5.2394915,7.4938851 5.2625696,7.8252447 5.4023199,8.1250408 5.6228921,8.3164075 5.8434567,8.5077678 6.1282102,8.5762677 6.4041379,8.5043231 6.6614765,8.437232 6.8931772,8.2567699 7.0565166,7.9962256 7.219856,7.7356813 7.2979494,7.4219695 7.2764287,7.1129235 Z M 5.8640583,7.9317027 C 5.6373164,7.7349833 5.6261402,7.2810678 5.8396637,6.9404745 6.0531717,6.5999057 6.4251209,6.4783489 6.6518627,6.6750683 6.8786044,6.8717877 6.8897731,7.3257155 6.6762572,7.6662965 6.4627492,8.0068653 6.0907852,8.1284092 5.8640583,7.9317027 Z"
     id="path2"
     style="stroke-width:0;stroke-dasharray:none" /></g>
</svg>
